<svg xmlns="http://www.w3.org/2000/svg" width="52.67" height="52.74" viewBox="0 0 52.67 52.74">
  <g id="trending-topic" transform="translate(-0.338 -0.001)">
    <g id="Groupe_4" data-name="Groupe 4" transform="translate(8.493 0.001)">
      <path id="Tracé_6" data-name="Tracé 6" d="M111.672,24.369a.211.211,0,0,0-.3-.238,5.9,5.9,0,0,0-3.5,4.374c-.38,2.918,1.9,4.511-.106,6.211-1.92,1.625-4.984-.293-5.981-3s-.685-6.273,2.027-8.365c3.684-2.842,1.937-4.914,1.018-8.512-1.018-3.982,1.02-4.685-.026-8.6-1.1-4.1-6.747-5.849-8.54-6.235a.21.21,0,0,0-.216.329,9.729,9.729,0,0,1-.694,11.931c-2.535,2.818-5.692,3.536-9.012,6.317-5.176,4.335-7.3,9.921-6.765,17.449a17.415,17.415,0,0,0,34.754.766c0-8.477-3.452-8.948-2.667-12.43Z" transform="translate(-79.504 -0.001)" fill="#ffd064"/>
    </g>
    <g id="Groupe_6" data-name="Groupe 6" transform="translate(23.969 24.11)">
      <g id="Groupe_5" data-name="Groupe 5">
        <path id="Tracé_7" data-name="Tracé 7" d="M246.439,234.309a.211.211,0,0,0-.3-.238,6.231,6.231,0,0,0-3.26,3.38,17.654,17.654,0,0,1,2.209,9.289,17.42,17.42,0,0,1-15.345,15.826,17.419,17.419,0,0,0,19.358-15.826C249.105,238.262,245.653,237.791,246.439,234.309Z" transform="translate(-229.747 -234.05)" fill="#ffc250"/>
      </g>
    </g>
    <g id="Groupe_7" data-name="Groupe 7" transform="translate(16.643 21.709)">
      <path id="Tracé_8" data-name="Tracé 8" d="M171.819,225.781a.211.211,0,0,0-.405-.033,9.3,9.3,0,0,1-1.463,2.742,1.836,1.836,0,0,1-1.412.753,1.176,1.176,0,0,1-1.053-.667c-.337-.693.035-1.221.625-1.811a3.181,3.181,0,0,0,1.159-2.724c-.058-2.434-2.455-3.793-2.01-5.664s2.469-2.148,2.063-4.756a3.846,3.846,0,0,0-1.814-2.846.211.211,0,0,0-.3.276,2.29,2.29,0,0,1,.1,1.952c-.581,1.319-3.168,1.546-4.1,4.173-.382,1.083.3,2.2-1.275,4.057-1.869,2.21-3.555,4.432-3.284,8.655a8.859,8.859,0,0,0,8.454,7.988,7.988,7.988,0,0,0,7.948-7.357c.092-1.588-1.11-1.815-1.971-2.33A3.589,3.589,0,0,1,171.819,225.781Z" transform="translate(-158.631 -210.744)" fill="#dd5790"/>
    </g>
    <g id="Groupe_9" data-name="Groupe 9" transform="translate(18.217 38.977)">
      <g id="Groupe_8" data-name="Groupe 8">
        <path id="Tracé_9" data-name="Tracé 9" d="M186.79,378.559a1.653,1.653,0,0,1-.238-.176,2.748,2.748,0,0,1,0,.295,7.988,7.988,0,0,1-7.948,7.357,8.173,8.173,0,0,1-4.7-1.573,8.724,8.724,0,0,0,6.909,3.785,7.988,7.988,0,0,0,7.948-7.357C188.852,379.3,187.65,379.074,186.79,378.559Z" transform="translate(-173.903 -378.383)" fill="#da387d"/>
      </g>
    </g>
    <g id="Groupe_10" data-name="Groupe 10" transform="translate(41.571 18.014)">
      <path id="Tracé_10" data-name="Tracé 10" d="M405.53,180.572l4.245-5.7h-9.15l4.245,5.7A.412.412,0,0,0,405.53,180.572Z" transform="translate(-400.624 -174.874)" fill="#e4f6ff"/>
    </g>
    <g id="Groupe_11" data-name="Groupe 11" transform="translate(39.283 9.107)">
      <path id="Tracé_11" data-name="Tracé 11" d="M390.185,100.057h-2.353l-2.553-.885-2.532.885h-2.374a1.957,1.957,0,0,1-1.957-1.957V90.467a2.06,2.06,0,0,1,2.06-2.06h9.708a1.957,1.957,0,0,1,1.957,1.957V98.1A1.957,1.957,0,0,1,390.185,100.057Z" transform="translate(-378.417 -88.407)" fill="#f4fbff"/>
    </g>
    <g id="Groupe_12" data-name="Groupe 12" transform="translate(39.283 9.107)">
      <path id="Tracé_12" data-name="Tracé 12" d="M390.184,88.407h-.251v7.328a2.113,2.113,0,0,1-2.113,2.113h-9.4V98.1a1.957,1.957,0,0,0,1.957,1.957h9.811a1.957,1.957,0,0,0,1.957-1.957V90.364A1.957,1.957,0,0,0,390.184,88.407Z" transform="translate(-378.416 -88.407)" fill="#e4f6ff"/>
    </g>
    <g id="Groupe_15" data-name="Groupe 15" transform="translate(2.625 29.245)">
      <path id="Tracé_14" data-name="Tracé 14" d="M27.451,289.6l4.245-5.7h-9.15l4.245,5.7A.412.412,0,0,0,27.451,289.6Z" transform="translate(-22.545 -283.905)" fill="#e4f6ff"/>
    </g>
    <g id="Groupe_16" data-name="Groupe 16" transform="translate(0.338 20.338)">
      <path id="Tracé_15" data-name="Tracé 15" d="M12.106,209.088H9.761L7.2,208.126l-2.553.962H2.3a1.957,1.957,0,0,1-1.957-1.957V199.5a2.06,2.06,0,0,1,2.06-2.06h9.708a1.957,1.957,0,0,1,1.957,1.957v7.736a1.957,1.957,0,0,1-1.957,1.957Z" transform="translate(-0.338 -197.438)" fill="#f4fbff"/>
    </g>
    <g id="Groupe_17" data-name="Groupe 17" transform="translate(0.338 20.338)">
      <path id="Tracé_16" data-name="Tracé 16" d="M12.106,197.438h-.251v7.328a2.113,2.113,0,0,1-2.113,2.113H.338v.251A1.957,1.957,0,0,0,2.3,209.088h9.811a1.957,1.957,0,0,0,1.957-1.957V199.4A1.957,1.957,0,0,0,12.106,197.438Z" transform="translate(-0.338 -197.438)" fill="#e4f6ff"/>
    </g>
    <g id="Groupe_19" data-name="Groupe 19" transform="translate(3.36 23.464)">
      <g id="Groupe_18" data-name="Groupe 18" transform="translate(0)">
        <path id="Tracé_17" data-name="Tracé 17" d="M35.573,227.8a2.041,2.041,0,0,0-2.022,1,.041.041,0,0,1-.071,0,2.041,2.041,0,1,0-2.716,2.832,6.724,6.724,0,0,1,1.335.9l.225.2a7.308,7.308,0,0,1,1.034,1.131.2.2,0,0,0,.314,0,7.312,7.312,0,0,1,1.034-1.131l.225-.2a6.729,6.729,0,0,1,1.335-.9,2.041,2.041,0,0,0-.693-3.831Z" transform="translate(-29.674 -227.785)" fill="#dd5790"/>
      </g>
    </g>
    <g id="chat" transform="translate(51.078 19.855) rotate(180)">
      <path id="Tracé_18" data-name="Tracé 18" d="M0,7.416V2.45a.836.836,0,0,1,.842-.805H5.3L8.6,0V1.644h.281a.836.836,0,0,1,.842.805V7.416a.836.836,0,0,1-.842.805H.807A.8.8,0,0,1,0,7.416Z" fill="#64daff"/>
      <g id="Groupe_20" data-name="Groupe 20" transform="translate(0.744 4.516)">
        <circle id="Ellipse_4" data-name="Ellipse 4" cx="0.509" cy="0.509" r="0.509" transform="translate(7.193)" fill="#fff"/>
        <circle id="Ellipse_5" data-name="Ellipse 5" cx="0.509" cy="0.509" r="0.509" transform="translate(3.596)" fill="#fff"/>
        <circle id="Ellipse_6" data-name="Ellipse 6" cx="0.509" cy="0.509" r="0.509" fill="#fff"/>
      </g>
    </g>
  </g>
</svg>
