<svg xmlns="http://www.w3.org/2000/svg" width="60.503" height="52.485" viewBox="0 0 60.503 52.485">
  <g id="heart" transform="translate(0)">
    <path id="Tracé_1" data-name="Tracé 1" d="M60.5,17.729c0,4.988-1.906,9.557-6,14.372-3.663,4.309-8.925,8.683-15.021,13.747-2.083,1.73-4.443,3.692-6.892,5.781a3.6,3.6,0,0,1-2.318.856h-.021a3.6,3.6,0,0,1-2.339-.857c-2.444-2.084-4.8-4.043-6.88-5.771l-.011-.008C14.928,40.785,9.663,36.411,6,32.1c-4.094-4.815-6-9.384-6-14.372A18.176,18.176,0,0,1,4.8,5.136,16.464,16.464,0,0,1,16.9,0a15.47,15.47,0,0,1,9.507,3.2,19.15,19.15,0,0,1,3.843,3.913l.021-.027A19.143,19.143,0,0,1,34.1,3.2,15.468,15.468,0,0,1,43.6,0,16.461,16.461,0,0,1,55.7,5.136a18.173,18.173,0,0,1,4.8,12.593Zm0,0" transform="translate(0 0)" fill="#ff005b"/>
    <path id="Tracé_2" data-name="Tracé 2" d="M287.49,17.729c0,4.988-1.974,9.557-6.214,14.372-3.794,4.309-9.244,8.683-15.557,13.747-2.157,1.73-4.6,3.692-7.138,5.781a3.812,3.812,0,0,1-2.4.856V7.085A19.484,19.484,0,0,1,260.139,3.2,16.4,16.4,0,0,1,269.984,0a17.348,17.348,0,0,1,12.534,5.136,17.826,17.826,0,0,1,4.971,12.593Zm0,0" transform="translate(-226.987 0)" fill="#ff005b"/>
  </g>
</svg>
