<svg xmlns="http://www.w3.org/2000/svg" width="42.127" height="37.295" viewBox="0 0 42.127 37.295">
  <g id="vote" transform="translate(-7 -34.504)">
    <path id="Tracé_25" data-name="Tracé 25" d="M0,13.221A13.221,13.221,0,1,1,18.2,25.472v3.914a.441.441,0,0,1-.692.363L12.7,26.431A13.221,13.221,0,0,1,0,13.221Z" transform="translate(22.721 34.504) rotate(3)" fill="#f58a97"/>
    <path id="Tracé_26" data-name="Tracé 26" d="M214.3,45.4a13.238,13.238,0,0,1,9.969-10.065c-.4-.035-.8-.055-1.2-.055a13.221,13.221,0,0,0-7.658,24v-.005a13.172,13.172,0,0,0,3.148,1.657,15.162,15.162,0,0,0,.305-3.03,14.99,14.99,0,0,0-3.931-10.13A2.678,2.678,0,0,1,214.3,45.4Z" transform="translate(-187.929 -0.102)" fill="#f07281"/>
    <path id="Tracé_29" data-name="Tracé 29" d="M311.039,129.512l2.584-2.584a.6.6,0,0,0,0-.842l-1.77-1.77a.6.6,0,0,0-.842,0l-2.584,2.584-2.584-2.584a.6.6,0,0,0-.842,0l-1.77,1.77a.6.6,0,0,0,0,.842l2.584,2.584L303.23,132.1a.6.6,0,0,0,0,.842l1.77,1.77a.6.6,0,0,0,.842,0l2.584-2.584,2.584,2.584a.6.6,0,0,0,.842,0l1.77-1.77a.6.6,0,0,0,0-.842Z" transform="translate(-272.579 -80.809)" fill="#f9f7f8"/>
    <path id="Tracé_27" data-name="Tracé 27" d="M26.442,150.91a13.221,13.221,0,1,0-18.2,12.251v3.914a.441.441,0,0,0,.692.363l4.806-3.318a13.221,13.221,0,0,0,12.7-13.21Z" transform="translate(7 -95.717)" fill="#ade194"/>
    <path id="Tracé_28" data-name="Tracé 28" d="M12.22,164.631a3.4,3.4,0,0,0-1.693-2.932,13.226,13.226,0,0,1,2.625-24.008,13.223,13.223,0,0,0-4.909,25.471v3.914a.441.441,0,0,0,.692.363l3.285-2.268v-.541Z" transform="translate(7 -95.719)" fill="#97da7b"/>
    <path id="Tracé_30" data-name="Tracé 30" d="M76.424,242.247h2.4a.308.308,0,0,0,.217-.09L86.226,235a.321.321,0,0,0,0-.449l-2.137-2.225a.321.321,0,0,0-.458-.005l-5.845,5.823-1.466-1.846a.138.138,0,0,0-.192-.024l-2.738,2.1a.138.138,0,0,0-.024.195l2.778,3.524.038.047A.31.31,0,0,0,76.424,242.247Z" transform="translate(-58.742 -182.442)" fill="#f9f7f8"/>
  </g>
</svg>
